<svg width="20" height="18" viewBox="0 0 20 18" fill="none" xmlns="http://www.w3.org/2000/svg">
<g clip-path="url(#clip0_2267_45907)">
<path d="M0 4.5295V6.5H3.12667L0 4.5295ZM2.59111 15.5H7.22222V12.5815L2.59111 15.5ZM12.7778 12.582V15.5H17.4083L12.7778 12.582ZM0 11.5V13.4705L3.12778 11.5H0ZM17.4094 2.5H12.7778V5.4185L17.4094 2.5ZM20 13.471V11.5H16.8717L20 13.471ZM20 6.5V4.5295L16.8728 6.5H20ZM7.22222 2.5H2.59111L7.22222 5.4185V2.5Z" fill="#00247D"/>
<path d="M13.9668 11.4991L19.3624 14.8996C19.6259 14.6553 19.8153 14.3542 19.9124 14.0251L15.9041 11.4991H13.9668ZM7.2224 11.4991H6.03296L0.637958 14.8991C0.927402 15.1641 1.29851 15.3536 1.71462 15.4416L7.2224 11.9706V11.4991ZM12.778 6.49914H13.9674L19.3624 3.09914C19.068 2.83028 18.6948 2.64215 18.2863 2.55664L12.778 6.02764V6.49914ZM6.03296 6.49914L0.637958 3.09914C0.374599 3.34363 0.185077 3.64466 0.0874023 3.97364L4.09574 6.49914H6.03296Z" fill="#CF1B2B"/>
<path d="M20 10.5H11.6667V15.5H12.7778V12.582L17.4083 15.5H17.7778C18.0729 15.5 18.3651 15.447 18.6372 15.3441C18.9093 15.2411 19.1558 15.0903 19.3622 14.9005L13.9667 11.5H15.9039L19.9122 14.026C19.9639 13.8575 20 13.683 20 13.5V13.471L16.8717 11.5H20V10.5ZM0 10.5V11.5H3.12778L0 13.4705V13.5C0 14.0455 0.243889 14.539 0.637778 14.9L6.03278 11.5H7.22222V11.9715L1.71444 15.442C1.87778 15.477 2.04667 15.5 2.22222 15.5H2.59111L7.22222 12.5815V15.5H8.33333V10.5H0ZM20 4.5C20.0003 3.97599 19.7712 3.47298 19.3622 3.1L13.9672 6.5H12.7778V6.0285L18.2861 2.5575C18.1197 2.52076 17.9491 2.50147 17.7778 2.5H17.4094L12.7778 5.4185V2.5H11.6667V7.5H20V6.5H16.8728L20 4.5295V4.5ZM7.22222 2.5V5.4185L2.59111 2.5H2.22222C1.92701 2.49988 1.63476 2.55291 1.36265 2.65595C1.09055 2.75899 0.844091 2.90997 0.637778 3.1L6.03278 6.5H4.09556L0.0872222 3.9745C0.0321001 4.14535 0.00276301 4.32211 0 4.5L0 4.5295L3.12667 6.5H0V7.5H8.33333V2.5H7.22222Z" fill="#EEEEEE"/>
<path d="M11.6667 7.5V2.5H8.33333V7.5H0V10.5H8.33333V15.5H11.6667V10.5H20V7.5H11.6667Z" fill="#CF1B2B"/>
</g>
<defs>
<clipPath id="clip0_2267_45907">
<rect width="20" height="18" fill="white"/>
</clipPath>
</defs>
</svg>
