<svg width="20" height="18" viewBox="0 0 20 18" fill="none" xmlns="http://www.w3.org/2000/svg">
<path d="M17.7778 2.5H5V7H20V4.5C20 3.96957 19.7659 3.46086 19.3491 3.08579C18.9324 2.71071 18.3671 2.5 17.7778 2.5Z" fill="#068241"/>
<path d="M5 7H20V11H5V7Z" fill="#EEEEEE"/>
<path d="M5 15.5H17.7778C18.3671 15.5 18.9324 15.2893 19.3491 14.9142C19.7659 14.5391 20 14.0304 20 13.5V11H5V15.5Z" fill="#141414"/>
<path d="M2.22222 2.5C1.63285 2.5 1.06762 2.71071 0.650874 3.08579C0.234126 3.46086 0 3.96957 0 4.5L0 13.5C0 14.0304 0.234126 14.5391 0.650874 14.9142C1.06762 15.2893 1.63285 15.5 2.22222 15.5H5V2.5H2.22222Z" fill="#EC2028"/>
</svg>
