<svg width="20" height="18" viewBox="0 0 20 18" fill="none" xmlns="http://www.w3.org/2000/svg">
<g clip-path="url(#clip0_2267_45900)">
<path d="M17.7778 2.5H2.22222C1.63285 2.5 1.06762 2.71071 0.650874 3.08579C0.234126 3.46086 0 3.96957 0 4.5L0 13.5C0 14.0304 0.234126 14.5391 0.650874 14.9142C1.06762 15.2893 1.63285 15.5 2.22222 15.5H17.7778C18.3671 15.5 18.9324 15.2893 19.3491 14.9142C19.7659 14.5391 20 14.0304 20 13.5V4.5C20 3.96957 19.7659 3.46086 19.3491 3.08579C18.9324 2.71071 18.3671 2.5 17.7778 2.5Z" fill="#003399"/>
<path d="M10.2996 4.85242L10.7713 4.54392H10.1885L10.008 4.04492L9.82795 4.54392H9.24518L9.71684 4.85242L9.53629 5.35142L10.008 5.04292L10.4796 5.35142L10.2996 4.85242ZM10.2996 13.5189L10.7713 13.2104H10.1885L10.008 12.7114L9.82795 13.2104H9.24518L9.71684 13.5189L9.53629 14.0179L10.008 13.7094L10.4796 14.0179L10.2996 13.5189ZM5.48518 9.18542L5.95684 8.87692H5.37351L5.19351 8.37792L5.01295 8.87692H4.43018L4.90184 9.18542L4.72184 9.68442L5.19351 9.37592L5.66518 9.68442L5.48518 9.18542ZM6.10018 7.04292L6.57184 6.73442H5.98851L5.80851 6.23542L5.62851 6.73442H5.04518L5.51684 7.04292L5.33684 7.54192L5.80851 7.23342L6.28018 7.54192L6.10018 7.04292ZM6.10018 11.3524L6.57184 11.0439H5.98851L5.80851 10.5449L5.62851 11.0439H5.04518L5.51684 11.3524L5.33684 11.8514L5.80851 11.5429L6.28018 11.8514L6.10018 11.3524ZM7.8924 5.43292L8.36406 5.12442H7.78073L7.60073 4.62542L7.42073 5.12442H6.8374L7.30906 5.43292L7.12906 5.93192L7.60073 5.62342L8.0724 5.93192L7.8924 5.43292ZM7.8924 12.9664L8.36406 12.6579H7.78073L7.60073 12.1589L7.42073 12.6579H6.8374L7.30906 12.9664L7.12906 13.4654L7.60073 13.1574L8.0724 13.4654L7.8924 12.9664ZM14.5152 9.18542L14.0435 8.87692H14.6268L14.8068 8.37792L14.9874 8.87692H15.5702L15.0985 9.18542L15.2785 9.68442L14.8068 9.37592L14.3352 9.68442L14.5152 9.18542ZM13.9002 7.04292L13.4285 6.73442H14.0118L14.1918 6.23542L14.3718 6.73442H14.9552L14.4835 7.04292L14.6635 7.54192L14.1918 7.23342L13.7202 7.54192L13.9002 7.04292ZM13.9002 11.3524L13.4285 11.0439H14.0118L14.1918 10.5449L14.3718 11.0439H14.9552L14.4835 11.3524L14.6635 11.8514L14.1918 11.5429L13.7202 11.8514L13.9002 11.3524ZM12.108 5.43292L11.6363 5.12442H12.2196L12.3996 4.62542L12.5796 5.12442H13.163L12.6913 5.43292L12.8713 5.93192L12.3996 5.62342L11.928 5.93192L12.108 5.43292ZM12.108 12.9664L11.6363 12.6579H12.2196L12.3996 12.1589L12.5796 12.6579H13.163L12.6913 12.9664L12.8713 13.4654L12.3996 13.1574L11.928 13.4654L12.108 12.9664Z" fill="#FFCC00"/>
</g>
<defs>
<clipPath id="clip0_2267_45900">
<rect width="20" height="18" fill="white"/>
</clipPath>
</defs>
</svg>
