<svg width="20" height="18" viewBox="0 0 20 18" fill="none" xmlns="http://www.w3.org/2000/svg">
<g clip-path="url(#clip0_2267_45891)">
<path d="M20 13.5C20 14.0304 19.7659 14.5391 19.3491 14.9142C18.9324 15.2893 18.3671 15.5 17.7778 15.5H2.22222C1.63285 15.5 1.06762 15.2893 0.650874 14.9142C0.234126 14.5391 0 14.0304 0 13.5V4.5C0 3.96957 0.234126 3.46086 0.650874 3.08579C1.06762 2.71071 1.63285 2.5 2.22222 2.5H17.7778C18.3671 2.5 18.9324 2.71071 19.3491 3.08579C19.7659 3.46086 20 3.96957 20 4.5V13.5Z" fill="#75AADB"/>
<path d="M0 6.5H20V11.5H0V6.5Z" fill="#EEEEEE"/>
<path d="M9.99995 6.5L10.2711 7.774L11.0633 6.6905L10.7716 7.9605L11.9638 7.232L11.1544 8.3055L12.5661 8.0435L11.3622 8.756L12.7777 9L11.3622 9.244L12.5661 9.957L11.1544 9.6945L11.9638 10.7675L10.7716 10.039L11.0633 11.3095L10.2711 10.226L9.99995 11.5L9.72883 10.226L8.93717 11.3095L9.22828 10.039L8.0355 10.7675L8.84495 9.6945L7.43383 9.957L8.63772 9.244L7.22217 9L8.63772 8.756L7.43383 8.0435L8.84495 8.3055L8.0355 7.232L9.22828 7.9605L8.93717 6.6905L9.72883 7.774L9.99995 6.5Z" fill="#FCBF49"/>
<path d="M9.99995 7.165L10.1344 7.7975L10.1988 8.1L10.3872 7.843L10.7805 7.305L10.6355 7.9355L10.5661 8.2375L10.8494 8.0645L11.4416 7.703L11.0399 8.236L10.8477 8.491L11.1827 8.4285L11.8838 8.2985L11.2861 8.6525L10.9999 8.821L11.3361 8.879L12.0388 9L11.3361 9.121L10.9999 9.179L11.2855 9.3485L11.8833 9.7025L11.1822 9.572L10.8466 9.5095L11.0388 9.7645L11.4405 10.297L10.8488 9.9355L10.5655 9.7625L10.6349 10.0645L10.7799 10.6955L10.3866 10.1575L10.1988 9.9L10.1344 10.2025L9.99995 10.835L9.8655 10.2025L9.80106 9.9L9.61272 10.1575L9.21939 10.6955L9.36383 10.0645L9.43328 9.763L9.14995 9.936L8.55772 10.2975L8.95939 9.7645L9.15161 9.5095L8.81606 9.572L8.1155 9.7025L8.71328 9.3485L8.99883 9.179L8.66272 9.121L7.96106 9L8.66383 8.879L8.99995 8.821L8.71383 8.6515L8.11606 8.2975L8.81661 8.4275L9.15161 8.49L8.95939 8.235L8.55717 7.702L9.14939 8.064L9.43272 8.237L9.36328 7.9355L9.21883 7.305L9.61217 7.843L9.8005 8.1005L9.86495 7.798L9.99995 7.165ZM9.99995 6.5L9.72883 7.774L8.93717 6.6905L9.22828 7.961L8.0355 7.2325L8.84495 8.306L7.43383 8.044L8.63772 8.7565L7.22217 9L8.63772 9.244L7.43383 9.957L8.84495 9.6945L8.0355 10.7675L9.22828 10.039L8.93717 11.3095L9.72883 10.226L9.99995 11.5L10.2711 10.226L11.0633 11.3095L10.7716 10.039L11.9638 10.7675L11.1544 9.6945L12.5661 9.957L11.3622 9.244L12.7777 9L11.3622 8.756L12.5661 8.0435L11.1544 8.3055L11.9638 7.232L10.7716 7.9605L11.0633 6.69L10.2711 7.7735L9.99995 6.5Z" fill="#843511"/>
<path d="M9.99978 10C10.6134 10 11.1109 9.55228 11.1109 9C11.1109 8.44772 10.6134 8 9.99978 8C9.38613 8 8.88867 8.44772 8.88867 9C8.88867 9.55228 9.38613 10 9.99978 10Z" fill="#FCBF49"/>
<path d="M9.99989 10.0625C9.34878 10.0625 8.81934 9.586 8.81934 9C8.81934 8.414 9.34878 7.9375 9.99989 7.9375C10.651 7.9375 11.1804 8.414 11.1804 9C11.1804 9.586 10.651 10.0625 9.99989 10.0625ZM9.99989 8.0625C9.42545 8.0625 8.95822 8.483 8.95822 9C8.95822 9.517 9.42545 9.9375 9.99989 9.9375C10.5743 9.9375 11.0416 9.517 11.0416 9C11.0416 8.483 10.5743 8.0625 9.99989 8.0625Z" fill="#843511"/>
<path d="M9.88954 8.88652C9.88954 8.96402 9.74454 9.02652 9.56566 9.02652C9.38621 9.02652 9.24121 8.96402 9.24121 8.88652C9.24121 8.80902 9.38621 8.74652 9.56566 8.74652C9.74454 8.74652 9.88954 8.80902 9.88954 8.88652ZM10.7523 8.87452C10.7523 8.79402 10.6045 8.72852 10.4223 8.72852C10.2401 8.72852 10.0923 8.79352 10.0923 8.87452C10.0923 8.95552 10.2401 9.02052 10.4223 9.02052C10.6051 9.02052 10.7523 8.95502 10.7523 8.87452Z" fill="#C16540"/>
<path d="M9.70166 9.43677C9.70166 9.37377 9.83833 9.32227 10.0061 9.32227C10.1744 9.32227 10.3105 9.37327 10.3105 9.43677C10.3105 9.49977 10.1739 9.55127 10.0061 9.55127C9.83777 9.55127 9.70166 9.49977 9.70166 9.43677Z" fill="#ED8662"/>
</g>
<defs>
<clipPath id="clip0_2267_45891">
<rect width="20" height="18" fill="white"/>
</clipPath>
</defs>
</svg>
