<svg width="16" height="16" viewBox="0 0 16 16" fill="none" xmlns="http://www.w3.org/2000/svg">
<path fill-rule="evenodd" clip-rule="evenodd" d="M14.5545 0.26035C14.9016 0.607482 14.9016 1.1703 14.5545 1.51743L13.7015 2.37037L15.7396 4.4085C16.0868 4.75563 16.0868 5.31844 15.7396 5.66558C15.3925 6.01271 14.8297 6.01271 14.4826 5.66558L12.4444 3.62745L11.3312 4.74074L13.3693 6.77887C13.7164 7.126 13.7164 7.68881 13.3693 8.03595C13.0221 8.38308 12.4593 8.38308 12.1122 8.03595L10.0741 5.99782L8.63449 7.4374C9.52495 8.34593 10.074 9.59033 10.074 10.963C10.074 13.7448 7.81886 16 5.03699 16C2.25513 16 0 13.7448 0 10.963C0 8.18109 2.25513 5.92593 5.03699 5.92593C5.79654 5.92593 6.51681 6.09404 7.16264 6.39509L9.44512 4.11262L13.2974 0.26035C13.6445 -0.0867832 14.2073 -0.0867832 14.5545 0.26035ZM5.03699 7.7037C3.23699 7.7037 1.77778 9.16292 1.77778 10.963C1.77778 12.763 3.23699 14.2222 5.03699 14.2222C6.837 14.2222 8.29621 12.763 8.29621 10.963C8.29621 9.16292 6.837 7.7037 5.03699 7.7037Z" fill="white"/>
</svg>
