<svg width="20" height="20" viewBox="0 0 20 20" fill="none" xmlns="http://www.w3.org/2000/svg">
<path d="M8 11.3333C8 12.438 9.79067 13.3333 12 13.3333C14.2093 13.3333 16 12.438 16 11.3333M8 11.3333C8 10.2287 9.79067 9.33333 12 9.33333C14.2093 9.33333 16 10.2287 16 11.3333M8 11.3333V14C8 15.104 9.79067 16 12 16C14.2093 16 16 15.104 16 14V11.3333M4 6C4 6.71467 4.76267 7.37467 6 7.732C7.23733 8.08933 8.76267 8.08933 10 7.732C11.2373 7.37467 12 6.71467 12 6C12 5.28533 11.2373 4.62533 10 4.268C8.76267 3.91067 7.23733 3.91067 6 4.268C4.76267 4.62533 4 5.28533 4 6ZM4 6V12.6667C4 13.2587 4.51467 13.6333 5.33333 14M4 9.33333C4 9.92533 4.51467 10.3 5.33333 10.6667" stroke="white" stroke-width="1.5" stroke-linecap="round" stroke-linejoin="round"/>
</svg>
