<svg width="18" height="14" viewBox="0 0 18 14" fill="none" xmlns="http://www.w3.org/2000/svg">
<path d="M10.5766 9.00023L13.8294 12.4275C14.1033 12.7161 14.4633 12.9079 14.8554 12.9743C15.2475 13.0406 15.6505 12.9779 16.004 12.7955C16.3574 12.6132 16.6423 12.321 16.8158 11.9628C16.9893 11.6047 17.0421 11.1998 16.9663 10.8091L15.6875 4.2233M5.78138 4.20009V5.80014M4.98218 5.00011H6.58059M10.5766 5.00011H12.175M11.7754 1C12.8352 1 13.8516 1.42144 14.601 2.17161C15.3504 2.92177 15.7715 3.93922 15.7715 5.00011C15.7715 6.06101 15.3504 7.07846 14.601 7.82862C13.8516 8.57879 12.8352 9.00023 11.7754 9.00023H7.37979L4.17098 12.3819C3.8965 12.6712 3.53553 12.8633 3.14247 12.9294C2.74941 12.9954 2.34555 12.9318 1.99175 12.7481C1.63796 12.5644 1.3534 12.2705 1.18096 11.9108C1.00852 11.5512 0.957534 11.1451 1.03569 10.7539L2.3416 4.21529C2.52286 3.30843 3.01244 2.49247 3.72702 1.90625C4.44159 1.32003 5.33702 0.999782 6.2609 1H11.7754Z" stroke="white" stroke-width="1.5" stroke-linecap="round" stroke-linejoin="round"/>
</svg>
