<svg width="20" height="20" viewBox="0 0 20 20" fill="none" xmlns="http://www.w3.org/2000/svg">
<path d="M11.5864 12.0002L14.8425 15.4275C15.1167 15.7161 15.4771 15.9079 15.8696 15.9743C16.2621 16.0406 16.6655 15.9779 17.0193 15.7955C17.3731 15.6132 17.6583 15.321 17.8319 14.9628C18.0056 14.6047 18.0585 14.1998 17.9826 13.8091L16.7026 7.2233M6.78627 7.20009V8.80014M5.98625 8.00011H7.58629M11.5864 8.00011H13.1865M12.7864 4C13.8473 4 14.8648 4.42144 15.6149 5.17161C16.3651 5.92177 16.7866 6.93922 16.7866 8.00011C16.7866 9.06101 16.3651 10.0785 15.6149 10.8286C14.8648 11.5788 13.8473 12.0002 12.7864 12.0002H8.38631L5.17422 15.3819C4.89946 15.6712 4.53812 15.8633 4.14466 15.9294C3.75119 15.9954 3.34692 15.9318 2.99277 15.7481C2.63861 15.5644 2.35376 15.2705 2.18114 14.9108C2.00852 14.5512 1.95749 14.1451 2.03573 13.7539L3.34297 7.21529C3.52442 6.30843 4.0145 5.49247 4.72981 4.90625C5.44511 4.32003 6.34145 3.99978 7.26628 4H12.7864Z" stroke="white" stroke-width="1.5" stroke-linecap="round" stroke-linejoin="round"/>
</svg>
