<svg width="24" height="24" viewBox="0 0 24 24" fill="none" xmlns="http://www.w3.org/2000/svg">
<path d="M17.2892 11.1699C17.2892 11.1699 18.4416 11.2285 18.4416 10.5508C18.4416 9.66602 16.9064 8.86914 16.9064 8.86914C16.9064 8.86914 17.1466 8.35938 17.297 8.07422C17.4474 7.78906 17.8693 6.67969 17.9064 6.42578C17.9533 6.10547 17.881 6.00586 17.881 6.00586C17.7775 6.68945 16.6642 8.6582 16.5744 8.72461C15.4884 8.2168 13.9963 8.07422 13.9963 8.07422C13.9963 8.07422 12.5353 5 11.1603 5C9.79704 5 9.80485 7.63281 9.80485 7.63281C9.80485 7.63281 9.42008 6.88672 8.93571 6.88672C8.22868 6.88672 7.99625 7.95312 7.99625 9.11133C6.60172 9.11133 5.4279 9.42383 5.32243 9.45312C5.21891 9.48242 4.88883 9.72266 5.03727 9.69336C5.34391 9.5957 6.7775 9.37305 8.03141 9.48242C8.10172 10.582 8.7443 12.0156 8.7443 12.0156C8.7443 12.0156 7.3654 14.0117 7.3654 15.4355C7.3654 15.8105 7.52946 16.4961 8.51774 16.4961C9.34782 16.4961 10.2795 15.998 10.4533 15.8984C10.3009 16.1152 10.1877 16.5312 10.1877 16.7227C10.1877 16.8789 10.2814 17.3223 10.9201 17.3223C11.7404 17.3223 12.6584 16.6934 12.6584 16.6934C12.6584 16.6934 13.5256 18.1309 14.2658 18.7891C14.465 18.9668 14.6564 19 14.6564 19C14.6564 19 13.9201 18.293 12.9513 16.4688C13.8517 15.9141 14.7892 14.6016 14.7892 14.6016C14.7892 14.6016 14.9006 14.6055 15.756 14.6055C17.0959 14.6055 18.9982 14.3242 18.9982 13.2598C19.0002 12.1621 17.2892 11.1699 17.2892 11.1699ZM17.4377 10.5078C17.4377 10.8965 17.0685 10.8926 17.0685 10.8926L16.7873 10.9102C16.7873 10.9102 16.2541 10.6309 15.9298 10.498C15.9298 10.498 16.4318 9.72656 16.549 9.51172C16.6369 9.56445 17.4377 10.0645 17.4377 10.5078ZM11.8302 6.54883C12.4611 6.54883 13.3595 8.0332 13.3595 8.0332C13.3595 8.0332 11.9572 7.9082 10.8029 8.58594C10.8341 7.51758 11.1935 6.54883 11.8302 6.54883ZM9.3361 7.75195C9.53532 7.75195 9.73063 7.99609 9.81266 8.20117C9.81266 8.33789 9.88297 9.13477 9.88297 9.13477L8.72672 9.08984C8.72672 8.04883 9.13493 7.75195 9.3361 7.75195ZM9.215 14.9883C8.58219 14.9883 8.45329 14.6367 8.45329 14.3203C8.45329 13.6035 9.02555 12.5996 9.02555 12.5996C9.02555 12.5996 9.66813 13.9492 10.7873 14.5176C10.2326 14.8438 9.7736 14.9883 9.215 14.9883ZM11.2677 16.4004C10.8244 16.4004 10.7697 16.1133 10.7697 16.0469C10.7697 15.8418 10.9318 15.5977 10.9318 15.5977C10.9318 15.5977 11.6759 15.0957 11.7228 15.041L12.2736 16.0684C12.2736 16.0684 11.7111 16.4004 11.2677 16.4004ZM12.6506 15.8418C12.381 15.3711 12.1818 14.8789 12.1818 14.8789C12.1818 14.8789 13.2892 14.9492 13.8849 14.3359C13.5138 14.502 12.922 14.7129 12.2345 14.6484C13.672 13.3828 14.5119 12.4648 15.2209 11.5176C15.1603 11.4434 14.8361 11.2168 14.756 11.1797C14.3283 11.6953 12.6623 13.4746 11.1193 14.3555C9.16618 13.291 8.75602 10.1602 8.71501 9.50977L9.78141 9.61133C9.78141 9.61133 9.38102 10.3223 9.38102 10.8457C9.38102 11.3672 9.44352 11.3945 9.44352 11.3945C9.44352 11.3945 9.42985 10.4844 9.99235 9.78125C10.422 12.0625 10.8693 13.2305 11.217 13.9277C11.3947 13.8535 11.7248 13.707 11.7248 13.707C11.7248 13.707 10.7404 10.8691 10.7951 8.94922C11.2423 8.71094 11.9045 8.46484 12.6506 8.46484C14.6154 8.46484 16.1955 9.30859 16.1955 9.30859L15.5783 10.1719C15.5783 10.1719 15.0275 9.17578 14.2482 8.99805C14.6584 9.30273 15.1193 9.70703 15.3576 10.2871C13.7287 9.65234 11.7638 9.31641 11.133 9.24219C11.0783 9.47461 11.0861 9.80664 11.0861 9.80664C11.0861 9.80664 13.7209 10.293 15.6388 11.3887C15.6252 13.7871 13.0119 15.6289 12.6506 15.8418ZM15.1466 14.0488C15.1466 14.0488 15.965 12.9766 15.9513 11.5547C15.9513 11.5547 17.2736 12.373 17.2736 13.1719C17.2736 14.0625 15.1466 14.0488 15.1466 14.0488Z" fill="white"/>
</svg>
