<svg width="24" height="24" viewBox="0 0 24 24" fill="none" xmlns="http://www.w3.org/2000/svg">
<path d="M10.1858 14.7648C9.66309 14.8511 8.11056 13.4705 10.8174 12.3302C11.2365 12.1702 11.6919 12.1306 12.1322 12.2158C12.5726 12.301 12.9803 12.5077 13.3094 12.8125C14.2814 13.8254 13.8418 16.0481 11.9199 16.6941C10.0022 17.3385 8.41409 17.0884 7.39519 15.7294C5.48052 13.1756 8.62822 10.6858 10.8059 10.4927C12.8851 10.3084 13.4846 10.8552 14.7449 11.0325C16.0052 11.2097 18.4472 9.84492 18.5002 9.84962" stroke="#FF0000" stroke-width="0.5" stroke-linecap="round" stroke-linejoin="round"/>
<path d="M5.50016 10.6296C5.48196 10.7751 7.05602 10.7414 7.90016 10.354C9.07269 9.81598 12.4235 10.5042 12.4235 10.5042" stroke="#FF0000" stroke-width="0.5" stroke-linecap="round" stroke-linejoin="round"/>
<path d="M10.7091 12.377C10.1999 12.8292 10.0102 13.2089 10.6449 13.8232C11.2796 14.4375 10.7354 14.7562 10.1855 14.7649" stroke="#FF0000" stroke-width="0.5" stroke-linecap="round" stroke-linejoin="round"/>
<path d="M5.5 10.6301C6.93793 8.70536 8.88 8.4562 13.0909 6.9668" stroke="#FF0000" stroke-width="0.5" stroke-linecap="round" stroke-linejoin="round"/>
<path d="M12.3403 7.22852C11.085 7.99405 9.9106 8.92305 8.73877 9.49382C12.7952 7.37775 13.6454 10.6171 17.41 10.3634" stroke="#FF0000" stroke-width="0.5" stroke-linecap="round" stroke-linejoin="round"/>
<path d="M9.40457 7.51758L7.30273 9.08194" stroke="#FF0000" stroke-width="0.5" stroke-linecap="round" stroke-linejoin="round"/>
<path d="M7.62492 8.28711L6.68799 9.46404" stroke="#FF0000" stroke-width="0.5" stroke-linecap="round" stroke-linejoin="round"/>
<path d="M11.2284 10.3223C7.70069 12.8545 6.92809 16.6947 11.2411 16.8853" stroke="#FF0000" stroke-width="0.5" stroke-linecap="round" stroke-linejoin="round"/>
<path d="M10.75 16.9801C12.4257 17.0056 13.8596 16.3057 15.3996 15.9238" stroke="#FF0000" stroke-width="0.5" stroke-linecap="round" stroke-linejoin="round"/>
<path d="M17.6734 12.1348C13.5496 14.7617 15.1148 16.1732 13.3301 16.545" stroke="#FF0000" stroke-width="0.5" stroke-linecap="round" stroke-linejoin="round"/>
<path d="M12.0708 12.2052C14.0519 11.8626 14.5479 13.8053 16.8162 12.7211" stroke="#FF0000" stroke-width="0.5" stroke-linecap="round" stroke-linejoin="round"/>
<path d="M14.5156 12.8227L15.3647 12.6406" stroke="#FF0000" stroke-width="0.5" stroke-linecap="round" stroke-linejoin="round"/>
<path d="M15.1626 11.041C15.5892 11.0578 16.012 11.128 16.4212 11.2499" stroke="#FF0000" stroke-width="0.5" stroke-linecap="round" stroke-linejoin="round"/>
<path d="M12.3584 8.92814C12.7882 8.82114 13.2376 8.82083 13.6675 8.92722C14.0974 9.03361 14.4948 9.24349 14.8251 9.53857" stroke="#FF0000" stroke-width="0.5" stroke-linecap="round" stroke-linejoin="round"/>
<path d="M10.7515 8.80677L12.2181 8.55273" stroke="#FF0000" stroke-width="0.5" stroke-linecap="round" stroke-linejoin="round"/>
<path d="M9.30141 12.6406L8.63867 13.2455" stroke="#FF0000" stroke-width="0.5" stroke-linecap="round" stroke-linejoin="round"/>
</svg>
