<svg width="24" height="24" viewBox="0 0 24 24" fill="none" xmlns="http://www.w3.org/2000/svg">
<mask id="mask0_1161_97860" style="mask-type:alpha" maskUnits="userSpaceOnUse" x="4" y="3" width="15" height="18">
<path d="M18.4053 11.0002C19.1983 11.4366 19.1983 12.5634 18.4053 12.9997L5.72267 19.9787C4.95033 20.4037 4 19.8521 4 18.9789V5.02109C4 4.14786 4.95033 3.59634 5.72267 4.02134L18.4053 11.0002Z" fill="#C4C4C4"/>
</mask>
<g mask="url(#mask0_1161_97860)">
<path d="M4.39671 19.8424L12.3077 11.8869L4.52699 4.0625C4.21658 4.26149 4 4.60504 4 5.02192V18.9797C4 19.3354 4.15764 19.6377 4.39671 19.8424Z" fill="url(#paint0_linear_1161_97860)"/>
<path d="M18.4051 11.0002C19.1982 11.4366 19.1982 12.5633 18.4051 12.9996L15.2056 14.7603L12.3076 11.886L15.0578 9.1582L18.4051 11.0002Z" fill="url(#paint1_linear_1161_97860)"/>
<path d="M15.206 14.761L12.308 11.8867L4.39697 19.8422C4.74486 20.14 5.26517 20.2312 5.72296 19.9793L15.206 14.761Z" fill="url(#paint2_linear_1161_97860)"/>
<path d="M4.52686 4.06166L12.3076 11.8861L15.0577 9.15831L5.72252 4.02134C5.31889 3.79924 4.86666 3.84383 4.52686 4.06166Z" fill="url(#paint3_linear_1161_97860)"/>
</g>
<defs>
<linearGradient id="paint0_linear_1161_97860" x1="9.42306" y1="8.79698" x2="4.04441" y2="14.2199" gradientUnits="userSpaceOnUse">
<stop stop-color="#00C3FF"/>
<stop offset="1" stop-color="#1BE2FA"/>
</linearGradient>
<linearGradient id="paint1_linear_1161_97860" x1="12.3076" y1="11.886" x2="19.4614" y2="11.886" gradientUnits="userSpaceOnUse">
<stop stop-color="#FFCE00"/>
<stop offset="1" stop-color="#FFEA00"/>
</linearGradient>
<linearGradient id="paint2_linear_1161_97860" x1="4.23107" y1="20.8133" x2="13.7471" y2="13.1841" gradientUnits="userSpaceOnUse">
<stop stop-color="#DE2453"/>
<stop offset="1" stop-color="#FE3944"/>
</linearGradient>
<linearGradient id="paint3_linear_1161_97860" x1="4.69216" y1="3.18836" x2="13.7483" y2="10.5853" gradientUnits="userSpaceOnUse">
<stop stop-color="#11D574"/>
<stop offset="1" stop-color="#01F176"/>
</linearGradient>
</defs>
</svg>
