<svg width="24" height="24" viewBox="0 0 24 24" fill="none" xmlns="http://www.w3.org/2000/svg">
<path d="M4.67923 10.9558L9.27041 4.82602C9.44692 4.59037 9.67663 4.39979 9.94082 4.26983C10.2972 4.09452 10.7002 4.03738 11.0912 4.10672L11.2981 4.1434C11.6345 4.20304 11.9552 4.33072 12.2404 4.51863L18.7205 8.78684C18.9388 8.93059 19.1362 9.10374 19.3071 9.3014C19.754 9.81806 19.9999 10.4783 19.9999 11.1614V11.5383L18.6513 10.6031C18.3357 10.3843 17.9608 10.267 17.5768 10.267C17.368 10.267 17.1577 10.3027 16.9603 10.3707C16.5714 10.5046 16.2295 10.7605 15.9944 11.098L15.581 11.6917L13.3466 10.4273C13.16 10.3217 12.9526 10.2584 12.7389 10.2419C12.3063 10.2084 11.8812 10.3687 11.5783 10.6793L10.9929 11.2799L9.33563 13.4777C8.54936 14.5205 8.63546 15.9797 9.53892 16.9227L5.25209 14.3434C5.08934 14.2455 4.93901 14.1283 4.80434 13.9943L4.65377 13.8445C4.24054 13.4335 4.03652 12.8569 4.09927 12.2775C4.1232 12.0565 4.18533 11.8414 4.28289 11.6417L4.37428 11.4547C4.46002 11.2792 4.56213 11.1121 4.67923 10.9558Z" fill="#162AC0"/>
<path d="M13.7821 12.1692L16 13.5L17.1216 12.0045C17.3598 11.6869 17.7336 11.5 18.1306 11.5C18.3718 11.5 18.6079 11.5691 18.811 11.6992L20.0001 12.461L15.8425 18.6497C15.6882 18.8793 15.4901 19.0763 15.2595 19.2291C14.5556 19.6959 13.6407 19.6959 12.9368 19.2291L12.5875 18.9975L11.4367 18.2344C11.1984 18.0763 10.9866 17.8815 10.8093 17.6571C10.0399 16.6833 10.0321 15.3107 10.7905 14.3282L12.231 12.4619C12.4559 12.1706 12.8031 12 13.1711 12C13.3863 12 13.5975 12.0585 13.7821 12.1692Z" fill="#FF5D20"/>
</svg>
