<svg width="24" height="24" viewBox="0 0 24 24" fill="none" xmlns="http://www.w3.org/2000/svg">
<g clip-path="url(#clip0_1161_97890)">
<path d="M11.5267 6.54202L12.8733 10.3467L13.1367 11.0907L13.1413 7.88402L13.148 4.67202H15.9947L16 11.9133C16.002 15.9 15.998 19.1733 15.99 19.18C15.982 19.186 15.8507 19.18 15.6993 19.162C15.04 19.0833 14.1727 19.0047 13.4727 18.974C13.3312 18.9687 13.1898 18.9602 13.0487 18.9487C13.0467 18.946 12.8667 18.4407 12.5313 17.4927V17.49L11.102 13.4493L10.8753 12.8133L10.87 15.8707C10.866 18.7807 10.8633 18.944 10.832 18.944C10.7233 18.944 9.78533 19.004 9.472 19.0347C9.26667 19.0527 8.85467 19.0947 8.55867 19.1313C8.26133 19.1653 8.01467 19.188 8.01 19.1833C8.004 19.1793 8 15.9107 8 11.9213V4.66735H8.00333V4.66602H10.862L10.8807 4.71935C10.8853 4.73002 10.924 4.83668 10.9853 5.01068L11.4127 6.19602L11.528 6.52668L11.5273 6.54202H11.5267Z" fill="#E60000"/>
</g>
<defs>
<clipPath id="clip0_1161_97890">
<rect width="16" height="16" fill="white" transform="translate(4 4)"/>
</clipPath>
</defs>
</svg>
