<svg width="24" height="24" viewBox="0 0 24 24" fill="none" xmlns="http://www.w3.org/2000/svg">
<path d="M11.9356 4.11042C11.9682 4.19422 11.9119 4.2709 11.8657 4.33571C11.539 4.79885 11.2821 5.31676 11.1796 5.87354C11.1396 5.98782 11.1484 6.07296 11.1796 6.08246C11.8138 6.02681 12.529 6.03321 13.1534 6.16656C14.2893 6.39524 15.351 6.97001 16.167 7.79179C16.9806 8.60508 17.5517 9.65894 17.7827 10.7864C18.0389 12.0072 17.8957 13.3067 17.3834 14.4437C16.2969 16.7655 14.4654 18.7294 12.2244 19.9742C12.1521 20.0078 12.0479 20.0092 11.9984 19.9373C11.94 19.8619 11.9641 19.7547 12.0218 19.6862C12.3241 19.2644 12.5352 18.7796 12.6498 18.274C12.6719 18.1692 12.7021 18.063 12.6929 17.9551C12.6559 17.9069 12.5949 17.9215 12.543 17.9232C11.4552 18.0321 10.3358 17.8377 9.35289 17.3572C8.30005 16.85 7.40668 16.0208 6.81597 15.0127C6.26868 14.0854 5.98096 13.0054 6.00098 11.9282C6.00471 10.9394 6.27445 9.95888 6.74947 9.09333C7.85524 6.97035 9.59142 5.17886 11.6876 4.02152C11.7755 3.97266 11.9054 4.00897 11.9356 4.11042ZM11.6265 9.6949C10.9795 9.78176 10.3827 10.1618 10.0203 10.7033C9.77498 11.0752 9.62636 11.5169 9.62942 11.9641C9.6111 12.5633 9.84996 13.1635 10.2639 13.5951C10.6256 13.9846 11.1281 14.2384 11.655 14.3063C12.1914 14.3772 12.7516 14.2517 13.2059 13.9568C13.6677 13.6637 14.0196 13.2009 14.177 12.6766C14.4725 11.7666 14.1183 10.7006 13.3474 10.1384C12.8633 9.76989 12.2284 9.60635 11.6265 9.6949Z" fill="url(#paint0_linear_1161_97864)"/>
<defs>
<linearGradient id="paint0_linear_1161_97864" x1="601.349" y1="4" x2="601.349" y2="1603.65" gradientUnits="userSpaceOnUse">
<stop stop-color="#FF9900"/>
<stop offset="1" stop-color="#F05A22"/>
</linearGradient>
</defs>
</svg>
