<svg width="24" height="24" viewBox="0 0 24 24" fill="none" xmlns="http://www.w3.org/2000/svg">
<g clip-path="url(#clip0_1161_97876)">
<path fill-rule="evenodd" clip-rule="evenodd" d="M13.5174 17.0961C16.6608 16.4415 17.0743 13.5751 15.8541 12.2492C15.2695 11.6026 14.3939 11.244 12.3127 10.7418C11.3633 10.5209 9.5658 10.1072 10.2314 9.12654C10.4503 8.76697 10.9984 8.55148 11.7281 8.5156C14.2431 8.34579 13.7169 11.0782 15.4527 10.2746C16.2554 9.87994 16.1824 8.5874 15.306 7.83318C13.3861 6.27373 7.89483 6.29206 7.89483 9.70037C7.89483 13.017 12.6637 12.2806 13.8823 13.6137C14.5131 14.3878 13.8385 15.6368 11.8376 15.5523C9.56418 15.3865 10.1674 13.2547 8.77126 13.2547C7.7124 13.2547 7.34756 14.1167 7.89483 15.2297C8.8418 17.163 11.5051 17.521 13.5539 17.0961H13.5174ZM14.5033 19.8601C13.4226 19.5069 13.4761 19.5292 12.4951 19.573C8.63019 19.7532 5.64334 17.332 4.68258 14.0449C4.28288 12.5715 4.73447 11.272 4.28125 9.84412C2.88593 6.10733 6.9665 2.80179 10.2679 4.42263C10.5606 4.56694 10.743 4.60193 11.8748 4.60193C12.8972 4.60193 13.2986 4.63771 13.8093 4.78201C16.1095 5.35604 17.9718 6.828 18.9569 8.87459C19.5779 10.1311 19.7968 11.4243 19.6509 12.8953C19.5779 13.6862 19.5779 13.7578 19.7603 14.2242C20.8994 17.5153 17.7829 20.7116 14.539 19.8609L14.5033 19.8601Z" fill="white"/>
</g>
<defs>
<clipPath id="clip0_1161_97876">
<rect width="16" height="16" fill="white" transform="translate(4 4)"/>
</clipPath>
</defs>
</svg>
