<svg width="24" height="24" viewBox="0 0 24 24" fill="none" xmlns="http://www.w3.org/2000/svg">
<path fill-rule="evenodd" clip-rule="evenodd" d="M3.64854 14.8729C3.82442 16.3249 5.84853 18.6229 8.7603 20.1606C10.1272 20.8823 10.5882 21 12.1493 21C12.95 21 13.6132 20.9608 13.8882 20.898C16.7515 20.2233 18.6037 18.7563 19.914 16.136C20.4235 15.1318 20.7066 14.2924 20.8846 13.3196C21.0221 12.5429 21.0382 11.2171 20.925 10.4482C20.739 9.17733 20.1162 7.67105 19.5257 7.05128C18.9176 6.21934 17.5858 4.7825 17.2053 4.55563C11.6247 1.22819 7.24892 4.12429 5.72692 5.1102C4.20492 6.09611 3 10.0397 3 10.9346C3 11.6506 3.43236 13.8585 3.64854 14.8729ZM17.4471 16.5675V12.4566C17.4471 10.1894 17.4228 8.33005 17.3904 8.31436C17.35 8.29867 16.7434 8.30651 16.0316 8.33005L14.7375 8.36927L14.6971 11.0366C14.6566 13.4529 14.6404 13.7354 14.511 13.9315C14.2441 14.3238 13.9853 14.3708 12.0522 14.3708C9.29412 14.3708 9.43971 14.567 9.43971 10.9346V8.33005H8.05662H6.68162L6.70589 11.4054C6.73015 14.3473 6.73824 14.5042 6.90809 14.9043C7.15074 15.4927 7.44191 15.83 7.92721 16.0968C8.73603 16.5439 9.02721 16.5675 13.4353 16.5675H17.4471Z" fill="white"/>
</svg>
