<svg width="24" height="24" viewBox="0 0 24 24" fill="none" xmlns="http://www.w3.org/2000/svg">
<path d="M13.9 17.0492H13.8C12.6 17.0492 11.4 17.0492 10.2 17.0492C10.05 17.0492 9.95 16.9992 9.9 16.8992C8.65 15.2992 7.35 13.7492 6.1 12.1492C6.05 12.0492 6 11.9992 6 11.8992C6 10.3492 6 8.84922 6 7.29922C6 7.24922 6 7.19922 6.05 7.19922H6.1C8.7 10.4492 11.3 13.6992 13.85 16.9492C13.85 16.9492 13.85 16.9992 13.9 16.9992V17.0492Z" fill="#FF4655"/>
<path d="M17.8998 12.1492C17.5498 12.5992 17.1498 13.0492 16.7998 13.5492C16.6998 13.6492 16.5998 13.6992 16.4998 13.6992C15.2998 13.6992 14.0998 13.6992 12.9498 13.6992H12.8998C12.8498 13.6992 12.7998 13.6492 12.8498 13.5992C12.8498 13.5992 12.8498 13.5492 12.8998 13.5492C14.0998 12.0492 15.2498 10.5992 16.4498 9.09922C16.9498 8.49922 17.4498 7.84922 17.8998 7.24922C17.8998 7.19922 17.9498 7.19922 17.9998 7.19922H18.0498C18.0498 7.24922 18.0498 7.24922 18.0498 7.29922C18.0498 8.79922 18.0498 10.3492 18.0498 11.8492C17.9998 11.9992 17.9498 12.0992 17.8998 12.1492Z" fill="#FF4655"/>
</svg>
