<svg width="24" height="24" viewBox="0 0 24 24" fill="none" xmlns="http://www.w3.org/2000/svg">
<g clip-path="url(#clip0_1161_97862)">
<path d="M20.0002 11.9991V11.9978C20.0002 9.58579 18.9296 7.42379 17.2376 5.96179L17.2276 5.95312C15.9542 6.63512 14.8622 7.46046 13.9162 8.42846L13.9136 8.43112C13.9429 8.46179 13.9716 8.48779 14.0009 8.51912C16.4802 11.1938 18.7382 15.0058 18.3649 16.8331C19.3849 15.5098 19.9996 13.8278 19.9996 12.0025C19.9996 12.0011 19.9996 11.9998 19.9996 11.9985L20.0002 11.9991Z" fill="white"/>
<path d="M12.3941 6.636C13.5141 5.9 14.8601 5.414 16.3087 5.288L16.3407 5.286C15.1161 4.47933 13.6141 4 12.0001 4C10.5527 4 9.19539 4.386 8.02539 5.06067L8.06406 5.04C8.50272 5.418 9.95539 5.56067 11.7201 6.64C11.8154 6.69933 11.9307 6.73467 12.0547 6.73467C12.1807 6.73467 12.2981 6.698 12.3967 6.63533L12.3941 6.63667V6.636Z" fill="white"/>
<path d="M10.1107 8.51936C10.1413 8.4867 10.1727 8.45936 10.2027 8.42736C9.42267 7.67136 8.572 6.97803 7.66533 6.3607L7.59933 6.31803C7.398 6.1707 7.14533 6.08203 6.872 6.08203C6.77467 6.08203 6.68 6.09336 6.58867 6.1147L6.59733 6.11336C4.99867 7.5787 4 9.67603 4 12.0067C4 13.946 4.69133 15.724 5.84133 17.1074L5.83067 17.094C5.14333 15.396 7.482 11.3127 10.11 8.51936H10.1107Z" fill="white"/>
<path d="M12.0561 10.1328C9.41477 12.4681 5.7381 15.9528 6.30144 17.6115C7.75077 19.0868 9.76677 20.0008 11.9961 20.0008C14.3248 20.0008 16.4208 19.0035 17.8801 17.4121L17.8854 17.4061C18.2094 15.6608 14.7154 12.5148 12.0561 10.1328Z" fill="white"/>
</g>
<defs>
<clipPath id="clip0_1161_97862">
<rect width="16" height="16" fill="white" transform="translate(4 4)"/>
</clipPath>
</defs>
</svg>
